<svg version="1.1" id="Layer_1" xmlns="http://www.w3.org/2000/svg" xmlns:xlink="http://www.w3.org/1999/xlink" x="0px" y="0px" viewBox="0 0 493.475 157.492" enable-background="new 0 0 493.475 157.492" xml:space="preserve"> <g> <path fill="#6D3075" d="M226.87,149.721c-2.501,0-4.018-1.189-4.018-4.06v-20.582c0-3.075,1.517-4.059,4.018-4.059h17.754v3.116 h-16.073c-1.599,0-1.886,0.491-1.886,1.927v7.421h17.549v3.116h-17.549v8.036c0,1.435,0.287,1.968,1.886,1.968h16.237v3.116H226.87 z"/> <path fill="#6D3075" d="M248.435,121.021h3.444v28.7h-3.444V121.021z"/> <path fill="#6D3075" d="M263.276,149.721c-6.478,0-7.831-4.224-7.831-10.783c0-7.995,2.543-11.193,9.882-11.193 c5.781,0,9.881,1.886,9.881,8.446c0,2.501-0.779,3.812-3.239,3.812h-12.956c0,3.526,0.615,6.93,5.002,6.93h10.619v2.788H263.276z M270.616,137.216c0.819,0,0.983-0.615,0.983-1.107v-0.164c0-4.1-2.583-5.412-6.231-5.412c-4.47,0-6.355,1.722-6.355,6.684H270.616 z"/> <path fill="#6D3075" d="M287.301,149.721c-7.38,0-9.226-4.142-9.226-10.906c0-6.561,1.846-10.824,9.226-10.824h8.241v2.788h-7.626 c-5.412,0-6.232,3.116-6.232,8.036c0,5.125,0.82,8.118,6.232,8.118h8.077v2.788H287.301z"/> <path fill="#6D3075" d="M307.922,149.721c-5.412,0-6.929-2.583-6.929-6.971v-11.972h-3.198v-2.788h3.198v-6.97h3.443v6.97h6.068 v2.788h-6.068v11.767c0,3.362,1.312,4.388,4.634,4.388h1.435v2.788H307.922z"/> <path fill="#6D3075" d="M312.882,135.821c0-5.371,2.624-7.831,7.995-7.831h2.378v2.788h-1.763c-3.772,0-5.166,1.927-5.166,5.904 v13.038h-3.444V135.821z"/> <path fill="#6D3075" d="M346.256,138.773c0,8.241-3.362,11.193-11.152,11.193s-11.152-2.952-11.152-11.193 c0-8.2,3.362-11.029,11.152-11.029S346.256,130.573,346.256,138.773z M335.104,147.179c5.535,0,7.544-2.255,7.544-8.405 s-2.009-8.241-7.544-8.241s-7.544,2.091-7.544,8.241S329.569,147.179,335.104,147.179z"/> <path fill="#6D3075" d="M349.821,131.558c0-2.255,0.943-3.567,3.321-3.567h7.79c4.715,0,7.339,2.05,7.339,7.052v14.679h-3.444 v-14.063c0-2.952-1.065-4.879-4.346-4.879h-5.945c-0.819,0-1.271,0.287-1.271,1.394v17.549h-3.444V131.558z"/> <path fill="#6D3075" d="M372.534,124.792v-3.771h3.526v3.771H372.534z M372.575,127.99h3.444v21.73h-3.444V127.99z"/> <path fill="#6D3075" d="M388.851,149.721c-7.38,0-9.226-4.142-9.226-10.906c0-6.561,1.846-10.824,9.226-10.824h8.241v2.788h-7.626 c-5.412,0-6.232,3.116-6.232,8.036c0,5.125,0.82,8.118,6.232,8.118h8.077v2.788H388.851z"/> <path fill="#6D3075" d="M399.919,146.933h12.342c1.804,0,2.624-0.943,2.624-2.747c0-2.296-1.969-2.706-5.33-3.526l-3.978-0.983 c-4.141-1.025-5.985-2.624-5.985-6.273s2.05-5.412,5.862-5.412h11.768v2.788h-11.398c-2.009,0-2.788,0.697-2.788,2.624 c0,2.419,1.682,2.993,4.06,3.608l4.305,1.106c4.387,1.107,7.093,1.886,7.093,6.109c0,3.362-1.229,5.494-5.371,5.494h-13.202 V146.933z"/> <path fill="#6D3075" d="M435.917,149.721c-2.092,0-3.649-0.82-3.649-3.444v-25.256h3.813v23.862c0,1.271,0.409,1.722,1.804,1.722 h15.908v3.116H435.917z"/> <path fill="#6D3075" d="M463.427,149.721c-5.412,0-6.929-2.583-6.929-6.971v-11.972H453.3v-2.788h3.198v-6.97h3.443v6.97h6.068 v2.788h-6.068v11.767c0,3.362,1.312,4.388,4.634,4.388h1.435v2.788H463.427z"/> <path fill="#6D3075" d="M476.71,149.721c-7.175,0-9.021-3.896-9.021-10.865c0-6.766,1.846-10.865,9.021-10.865h6.52v-6.97h3.443 v25.297c0,2.132-0.819,3.403-3.32,3.403H476.71z M477.367,130.819c-5.207,0-6.068,2.911-6.068,8.036 c0,5.33,0.861,8.077,6.068,8.077h4.428c1.148,0,1.436-0.451,1.436-1.559v-14.555H477.367z"/> </g> <path fill="#717271" d="M237.134,106.791c-17.789,0-21.503-11.596-21.503-29.609c0-21.954,6.98-30.735,27.132-30.735 c15.874,0,27.133,5.179,27.133,23.192c0,6.868-2.139,10.47-8.895,10.47h-35.576c0,9.682,1.689,19.026,13.735,19.026h29.159v7.656 H237.134z M257.287,72.453c2.252,0,2.702-1.689,2.702-3.04v-0.45c0-11.259-7.093-14.861-17.112-14.861 c-12.272,0-17.451,4.729-17.451,18.351H257.287z"/> <path fill="#717271" d="M279.233,56.916c0-6.192,2.589-9.795,9.119-9.795h21.392c12.946,0,20.152,5.629,20.152,19.365v40.305h-9.457 V68.174c0-8.105-2.928-13.397-11.934-13.397H292.18c-2.252,0-3.49,0.788-3.49,3.828v48.186h-9.457V56.916z"/> <path fill="#717271" d="M363.776,106.791c-14.86,0-19.025-7.092-19.025-19.139V54.777h-8.782v-7.656h8.782V27.982h9.456v19.139 h16.663v7.656h-16.663v32.312c0,9.232,3.603,12.046,12.723,12.046h3.94v7.656H363.776z"/> <path fill="#717271" d="M396.534,106.791c-17.788,0-21.503-11.596-21.503-29.609c0-21.954,6.979-30.735,27.133-30.735 c15.874,0,27.132,5.179,27.132,23.192c0,6.868-2.139,10.47-8.895,10.47h-35.576c0,9.682,1.689,19.026,13.735,19.026h29.159v7.656 H396.534z M416.687,72.453c2.251,0,2.701-1.689,2.701-3.04v-0.45c0-11.259-7.092-14.861-17.112-14.861 c-12.272,0-17.451,4.729-17.451,18.351H416.687z"/> <path fill="#717271" d="M462.05,106.791c-20.265,0-25.33-11.371-25.33-29.947c0-18.013,5.065-29.722,25.33-29.722h22.63v7.656 h-20.94c-14.861,0-17.112,8.557-17.112,22.066c0,14.073,2.251,22.292,17.112,22.292h22.18v7.656H462.05z"/> <rect x="134.949" y="10.329" fill="#717271" width="13.402" height="95.238"/> <path fill="#6D3075" d="M196.141,105.566L156.276,69.24c-4.082-3.673-4.898-8.027-4.898-12.653c0-3.673,2.041-8.027,4.625-10.612 l36.055-35.646h19.479l-41.225,39.047c-2.176,2.177-4.49,3.809-4.49,7.075c0,3.945,2.857,6.394,5.579,8.708l45.034,40.408H196.141z"/> <path fill="#6D3075" d="M100.542,106.139H12.15c-3.158,0-5.742-2.584-5.742-5.742v-84.9c0-3.158,2.584-5.741,5.742-5.741h88.392 c3.158,0,5.742,2.583,5.742,5.741v84.9C106.284,103.555,103.7,106.139,100.542,106.139z"/> <path fill="#FFFFFF" stroke="#FFFFFF" stroke-width="0.4883" stroke-miterlimit="10" d="M72.767,106.139L28.293,69.101 c-5.508-4.544-6.609-8.675-6.609-12.53c0-3.03,1.79-7.022,5.92-10.603L68.361,9.756h20.68L43.603,49.548 c-2.479,2.203-5.371,3.993-5.371,7.022c0,3.442,3.443,6.196,6.472,8.674l49.431,40.894H72.767z"/> </svg>